name C:\Users\u0101727\Documents\MyRepositories\upper-imu-dc\Results\main_tracking\Case_61\kinematics.mot
datacolumns 10
datarows 33
range 2.07000000 2.39000000
endheader 
time	clav_prot	clav_elev	scapula_abduction	scapula_elevation	scapula_upward_rot	scapula_winging	plane_elv	shoulder_elv	axial_rot	
          2.07000000	        -23.06814166	          8.92058777	          8.19177665	         -0.82411507	         47.82328652	         -5.39379545	         60.25151093	         80.96580251	        -19.05913221	
          2.08000000	        -23.17018651	          8.94942984	          8.28742607	         -0.84065028	         48.16263826	         -5.44674798	         59.98651637	         81.28952875	        -18.79403989	
          2.09000000	        -23.27532145	          8.97287840	          8.38213497	         -0.86072235	         48.50506297	         -5.49887599	         59.71926011	         81.60158225	        -18.53077919	
          2.10000000	        -23.38307049	          8.99157174	          8.47561113	         -0.88373986	         48.84946663	         -5.55008038	         59.45030698	         81.90284760	        -18.27085638	
          2.11000000	        -23.49304986	          9.00614805	          8.56755054	         -0.90914223	         49.19493907	         -5.60029771	         59.18021057	         82.19422277	        -18.01540103	
          2.12000000	        -23.60498804	          9.01724744	          8.65761551	         -0.93639902	         49.54076979	         -5.64950297	         58.90951254	         82.47660155	        -17.76512381	
          2.13000000	        -23.71873118	          9.02551551	          8.74542609	         -0.96500580	         49.88644912	         -5.69770995	         58.63873245	         82.75085851	        -17.52030799	
          2.14000000	        -23.83423377	          9.03160667	          8.83056602	         -0.99447820	         50.23165502	         -5.74496906	         58.36834872	         83.01783701	        -17.28083747	
          2.15000000	        -23.95153790	          9.03618478	          8.91259947	         -1.02434641	         50.57622759	         -5.79136277	         58.09877409	         83.27834047	        -17.04625781	
          2.16000000	        -24.07074686	          9.03991873	          8.99109234	         -1.05415247	         50.92013557	         -5.83699911	         57.83033048	         83.53312678	        -16.81586088	
          2.17000000	        -24.19199841	          9.04347230	          9.06563275	         -1.08345182	         51.26343954	         -5.88200395	         57.56322874	         83.78290535	        -16.58878046	
          2.18000000	        -24.31544132	          9.04748959	          9.13584729	         -1.11181854	         51.60625599	         -5.92651294	         57.29755761	         84.02833603	        -16.36408607	
          2.19000000	        -24.44121646	          9.05257876	          9.20141254	         -1.13885277	         51.94872550	         -5.97066389	         57.03328394	         84.27002855	        -16.14086588	
          2.20000000	        -24.56944211	          9.05929676	          9.26206320	         -1.16418840	         52.29098626	         -6.01459010	         56.77026408	         84.50854176	        -15.91829368	
          2.21000000	        -24.70020277	          9.06813732	          9.31759764	         -1.18749936	         52.63315381	         -6.05841492	         56.50826443	         84.74438205	        -15.69567795	
          2.22000000	        -24.83354190	          9.07952291	          9.36788051	         -1.20850404	         52.97530669	         -6.10224773	         56.24698826	         84.97800115	        -15.47249253	
          2.23000000	        -24.96945992	          9.09379944	          9.41283983	         -1.22696859	         53.31747825	         -6.14618136	         55.98610631	         85.20979369	        -15.24838859	
          2.24000000	        -25.10791928	          9.11123213	          9.45245610	         -1.24271029	         53.65965412	         -6.19029070	         55.72528867	         85.44009511	        -15.02318791	
          2.25000000	        -25.24885627	          9.13200123	          9.48674286	         -1.25560167	         54.00177398	         -6.23463264	         55.46423514	         85.66918003	        -14.79685948	
          2.26000000	        -25.39219743	          9.15619803	          9.51572120	         -1.26557493	         54.34373605	         -6.27924692	         55.20270111	         85.89726079	        -14.56948390	
          2.27000000	        -25.53787658	          9.18382214	          9.53939306	         -1.27262541	         54.68540158	         -6.32415767	         54.94051670	         86.12448520	        -14.34121221	
          2.28000000	        -25.68584813	          9.21478162	          9.55771893	         -1.27681278	         55.02659773	         -6.36937544	         54.67759788	         86.35093338	        -14.11222722	
          2.29000000	        -25.83609346	          9.24889674	          9.57060478	         -1.27825907	         55.36711733	         -6.41489916	         54.41394980	         86.57661374	        -13.88271406	
          2.30000000	        -25.98861868	          9.28590772	          9.57790122	         -1.27714333	         55.70671627	         -6.46071792	         54.14966304	         86.80145936	        -13.65284570	
          2.31000000	        -26.14344422	          9.32548618	          9.57941556	         -1.27369325	         56.04510953	         -6.50681229	         53.88490383	         87.02532635	        -13.42278554	
          2.32000000	        -26.30058822	          9.36724926	          9.57493522	         -1.26817444	         56.38196811	         -6.55315525	         53.61990009	         87.24799570	        -13.19270606	
          2.33000000	        -26.46004687	          9.41077549	          9.56425854	         -1.26087853	         56.71691874	         -6.59971267	         53.35492503	         87.46917996	        -12.96281907	
          2.34000000	        -26.62177594	          9.45562072	          9.54722753	         -1.25211141	         57.04954816	         -6.64644359	         53.09028048	         87.68853486	        -12.73340989	
          2.35000000	        -26.78567765	          9.50133280	          9.52375626	         -1.24218279	         57.37941293	         -6.69330067	         52.82628202	         87.90567549	        -12.50486697	
          2.36000000	        -26.95159551	          9.54746398	          9.49384985	         -1.23139784	         57.70605444	         -6.74023101	         52.56324698	         88.12019546	        -12.27769899	
          2.37000000	        -27.11931821	          9.59358123	          9.45761123	         -1.22005082	         58.02901789	         -6.78717762	         52.30148555	         88.33168720	        -12.05253486	
          2.38000000	        -27.28859128	          9.63927513	          9.41523599	         -1.20842009	         58.34787327	         -6.83408182	         52.04129476	         88.53976141	        -11.83010554	
          2.39000000	        -27.45913436	          9.68416799	          9.36699742	         -1.19676374	         58.66223660	         -6.88088626	         51.78295550	         88.74406415	        -11.61121028	
